<?xml version="1.0" encoding="utf-8"?>
<!-- Generator: Adobe Illustrator 23.0.0, SVG Export Plug-In . SVG Version: 6.00 Build 0)  -->
<svg version="1.1" id="Layer_1" xmlns="http://www.w3.org/2000/svg" xmlns:xlink="http://www.w3.org/1999/xlink" x="0px" y="0px"
	 viewBox="0 0 56.2 35.7" style="enable-background:new 0 0 56.2 35.7;" xml:space="preserve">
<style type="text/css">
	.st0{fill:#FFFFFF;}
	.st1{fill-rule:evenodd;clip-rule:evenodd;fill:none;stroke:#015BAB;stroke-miterlimit:10;}
	.st2{fill-rule:evenodd;clip-rule:evenodd;fill:#FFFFFF;}
	.st3{fill-rule:evenodd;clip-rule:evenodd;fill:#015BAB;}
	.st4{fill:#015BAB;}
</style>
<g>
	<path id="path-1_1_" class="st0" d="M5.1,1.3h46c2.2,0,4,1.8,4,4v25c0,2.2-1.8,4-4,4h-46c-2.2,0-4-1.8-4-4v-25
		C1.1,3.1,2.9,1.3,5.1,1.3z"/>
</g>
<g id="Rectangle-14-Copy-4">
	<path class="st1" d="M5.1,1.3h46c2.2,0,4,1.8,4,4v25c0,2.2-1.8,4-4,4h-46c-2.2,0-4-1.8-4-4v-25C1.1,3.1,2.9,1.3,5.1,1.3z"/>
</g>
<path class="st2" d="M20.5,5.1c4.6,0,9.2,0,13.8,0c1.1,0,2.3,0,3.4,0c0,2.9,0,5.7,0,8.6c-0.4,0-0.7,0-1.1,0c0-2.5,0-5,0-7.5
	c-1.4,0-2.8,0-4.2,0c-4,0-8,0-11.9,0C20.5,5.8,20.5,5.4,20.5,5.1z"/>
<path class="st2" d="M18.3,7.2c0.7,0,1.3,0,2,0c-0.3,0.9-1.1,1.7-2,2C18.3,8.5,18.3,7.9,18.3,7.2z"/>
<path class="st2" d="M21.4,7.2c3.7,0,7.4,0,11,0c0.2,0.9,0.7,1.7,1.4,2.2c0.5,0.4,1.1,0.7,1.7,0.9c0,1.2,0,2.3,0,3.5
	c-0.8,0.2-1.5,0.7-2.1,1.3c-0.5,0.5-0.8,1.2-1,1.8c-3.7,0-7.4,0-11,0c-0.2-0.8-0.6-1.5-1.3-2.1c-0.5-0.5-1.2-0.8-1.8-1
	c0-1.2,0-2.3,0-3.5c0.8-0.2,1.5-0.6,2.1-1.2C20.9,8.6,21.2,7.9,21.4,7.2L21.4,7.2z M26.6,8.3c-0.3,0-0.5,0.1-0.8,0.2
	c-0.6,0.3-1.1,0.8-1.5,1.3c-0.8,1.4-0.8,3.2,0.1,4.5c0.4,0.5,0.9,1,1.5,1.2c0.6,0.2,1.2,0.3,1.8,0.1c0.5-0.1,1-0.4,1.4-0.8
	c0.3-0.3,0.6-0.7,0.8-1.2c0.4-1.1,0.4-2.3,0-3.3c-0.3-0.7-0.8-1.3-1.4-1.7C27.9,8.4,27.3,8.2,26.6,8.3z"/>
<path class="st2" d="M33.6,7.2c0.7,0,1.3,0,2,0c0,0.7,0,1.3,0,2C34.7,8.9,33.9,8.1,33.6,7.2z"/>
<g>
	<g>
		<path class="st3" d="M19.4,4v2.2h-2.2V18h19.4v-3.2c0.7,0,1.4,0,2.2,0V4H19.4z M20.3,7.2c-0.3,0.9-1.1,1.7-2,2c0-0.7,0-1.3,0-2
			C19,7.2,19.6,7.2,20.3,7.2z M18.3,16.9c0-0.7,0-1.3,0-2c0.9,0.3,1.6,1.1,2,2C19.6,16.9,19,16.9,18.3,16.9z M35.6,16.9
			c-0.7,0-1.3,0-2,0c0.3-0.9,1.1-1.7,2-2C35.6,15.6,35.6,16.2,35.6,16.9z M35.6,13.8c-0.8,0.2-1.5,0.7-2.1,1.3
			c-0.5,0.5-0.8,1.2-1,1.8c-3.7,0-7.4,0-11,0c-0.2-0.8-0.6-1.5-1.3-2.1c-0.5-0.5-1.2-0.8-1.8-1c0-1.2,0-2.3,0-3.5
			c0.8-0.2,1.5-0.6,2.1-1.2c0.5-0.5,0.8-1.2,1-1.9c3.7,0,7.4,0,11,0c0.2,0.9,0.7,1.7,1.4,2.2c0.5,0.4,1.1,0.7,1.7,0.9
			C35.6,11.5,35.6,12.6,35.6,13.8z M35.6,9.2c-0.9-0.3-1.6-1.1-2-2c0.7,0,1.3,0,2,0C35.6,7.9,35.6,8.5,35.6,9.2z M37.7,13.7
			c-0.4,0-0.7,0-1.1,0c0-2.5,0-5,0-7.5c-1.4,0-2.8,0-4.2,0c-4,0-8,0-11.9,0c0-0.4,0-0.7,0-1.1c4.6,0,9.2,0,13.8,0c1.1,0,2.3,0,3.4,0
			C37.7,7.9,37.7,10.8,37.7,13.7z"/>
		<path class="st3" d="M28.5,8.7c-0.5-0.3-1.2-0.5-1.9-0.4c-0.3,0-0.5,0.1-0.8,0.2c-0.6,0.3-1.1,0.8-1.5,1.3
			c-0.8,1.4-0.8,3.2,0.1,4.5c0.4,0.5,0.9,1,1.5,1.2c0.6,0.2,1.2,0.3,1.8,0.1c0.5-0.1,1-0.4,1.4-0.8c0.3-0.3,0.6-0.7,0.8-1.2
			c0.4-1.1,0.4-2.3,0-3.3C29.6,9.7,29.1,9.1,28.5,8.7z M26,14.4c-0.2-0.1-0.4-0.3-0.5-0.5C25.6,14.1,25.8,14.3,26,14.4
			c0.2,0.1,0.3,0.2,0.5,0.2C26.3,14.6,26.1,14.5,26,14.4z M29.1,12.6c0,0.1-0.1,0.3-0.1,0.4C29,12.9,29,12.7,29.1,12.6
			c0-0.2,0-0.3,0-0.5C29.1,12.2,29.1,12.4,29.1,12.6z"/>
	</g>
</g>
<path class="st2" d="M18.3,16.9c0-0.7,0-1.3,0-2c0.9,0.3,1.6,1.1,2,2C19.6,16.9,19,16.9,18.3,16.9z"/>
<path class="st2" d="M33.6,16.9c0.3-0.9,1.1-1.7,2-2c0,0.7,0,1.3,0,2C34.9,16.9,34.2,16.9,33.6,16.9z"/>
<g>
	<g>
		<path class="st4" d="M10.4,23.7H8.2v6.1H6.7v-6.1H4.5v-1.2h5.8V23.7z"/>
		<path class="st4" d="M12.8,29.8h-1.5v-7.4h1.5V29.8z"/>
		<path class="st4" d="M15.3,20.9c-0.1,0.1-0.2,0.2-0.4,0.2c-0.1,0-0.3-0.1-0.4-0.2l-1.3-1.1h1.4c0.1,0,0.1,0,0.2,0
			c0.1,0,0.1,0,0.1,0.1c0,0,0.1,0.1,0.1,0.1c0,0,0.1,0.1,0.1,0.1l0.4,0.6L15.3,20.9z M15.9,23.6v1.9h2.5v1.2h-2.5v1.9H19v1.2h-4.7
			v-7.4H19v1.2H15.9z M18.7,21.9h-1c-0.1,0-0.1,0-0.2,0c-0.1,0-0.2-0.1-0.2-0.2l-0.3-0.5c0,0,0,0,0-0.1c0,0,0,0,0-0.1c0,0,0,0,0,0.1
			c0,0,0,0,0,0.1l-0.3,0.5c-0.1,0.1-0.2,0.2-0.2,0.2c-0.1,0-0.1,0-0.2,0h-1l1.2-1.4h1.3L18.7,21.9z"/>
		<path class="st4" d="M26.5,22.4v7.4h-0.8c-0.1,0-0.2,0-0.3-0.1c-0.1,0-0.2-0.1-0.2-0.2l-3.7-4.7c0,0.1,0,0.2,0,0.3
			c0,0.1,0,0.2,0,0.3v4.3h-1.3v-7.4H21c0.1,0,0.1,0,0.2,0c0,0,0.1,0,0.1,0s0.1,0,0.1,0.1c0,0,0.1,0.1,0.1,0.1l3.7,4.7
			c0-0.1,0-0.3,0-0.4s0-0.2,0-0.3v-4.2H26.5z"/>
		<path class="st4" d="M38.5,22.4v7.4h-1.3v-4.5c0-0.1,0-0.2,0-0.3c0-0.1,0-0.2,0-0.3l-2.1,4C35,28.8,34.8,29,34.6,29h-0.2
			c-0.1,0-0.2,0-0.3-0.1s-0.2-0.1-0.2-0.2l-2.1-4c0,0.1,0,0.2,0,0.3c0,0.1,0,0.2,0,0.3v4.5h-1.3v-7.4h1.2c0.1,0,0.1,0,0.2,0
			c0.1,0,0.1,0,0.1,0c0,0,0.1,0,0.1,0.1c0,0,0.1,0.1,0.1,0.1l2.1,3.9c0.1,0.1,0.1,0.2,0.2,0.4c0.1,0.1,0.1,0.3,0.2,0.4
			c0-0.1,0.1-0.3,0.2-0.4c0.1-0.1,0.1-0.3,0.2-0.4l2-3.9c0-0.1,0.1-0.1,0.1-0.1s0.1-0.1,0.1-0.1c0,0,0.1,0,0.1,0c0,0,0.1,0,0.2,0
			H38.5z"/>
		<path class="st4" d="M46.5,29.8h-1.2c-0.1,0-0.2,0-0.3-0.1s-0.1-0.1-0.2-0.2L44.3,28h-2.9l-0.5,1.4c0,0.1-0.1,0.2-0.2,0.2
			c-0.1,0.1-0.2,0.1-0.3,0.1h-1.2l2.9-7.4h1.6L46.5,29.8z M42.9,21.9c-0.3,0-0.5,0-0.7-0.1s-0.4-0.1-0.5-0.3
			c-0.2-0.1-0.3-0.3-0.4-0.4c-0.1-0.2-0.1-0.4-0.1-0.6h1.1c0,0.2,0,0.3,0.1,0.4c0.1,0.1,0.3,0.2,0.5,0.2s0.4-0.1,0.5-0.2
			c0.1-0.1,0.1-0.2,0.1-0.4h1.1c0,0.2,0,0.4-0.1,0.6c-0.1,0.2-0.2,0.3-0.4,0.4s-0.3,0.2-0.6,0.3C43.3,21.9,43.1,21.9,42.9,21.9z
			 M44,27l-0.8-2.3c0-0.1-0.1-0.3-0.2-0.4c-0.1-0.2-0.1-0.3-0.1-0.5c0,0.2-0.1,0.4-0.1,0.5c-0.1,0.2-0.1,0.3-0.1,0.4L41.8,27H44z
			 M43.6,31c0,0.1,0,0.2-0.1,0.3c0,0.1-0.1,0.2-0.2,0.2s-0.2,0.1-0.2,0.2c-0.1,0-0.2,0.1-0.3,0.1c-0.1,0-0.2,0-0.3-0.1
			c-0.1,0-0.2-0.1-0.2-0.2c-0.1-0.1-0.1-0.1-0.2-0.2c0-0.1-0.1-0.2-0.1-0.3c0-0.1,0-0.2,0.1-0.3c0-0.1,0.1-0.2,0.2-0.2
			c0.1-0.1,0.1-0.1,0.2-0.2c0.1,0,0.2-0.1,0.3-0.1c0.1,0,0.2,0,0.3,0.1c0.1,0,0.2,0.1,0.2,0.2s0.1,0.1,0.2,0.2
			C43.6,30.8,43.6,30.9,43.6,31z"/>
		<g>
			<g>
				<path class="st4" d="M51.7,23.7h-2.2v6.1H48v-6.1h-2.1v-1.2h5.8V23.7z"/>
			</g>
		</g>
	</g>
</g>
</svg>
