<?xml version="1.0" encoding="utf-8"?>
<!-- Generator: Adobe Illustrator 23.0.0, SVG Export Plug-In . SVG Version: 6.00 Build 0)  -->
<svg version="1.1" id="Layer_1" xmlns="http://www.w3.org/2000/svg" xmlns:xlink="http://www.w3.org/1999/xlink" x="0px" y="0px"
	 viewBox="0 0 126 60" style="enable-background:new 0 0 126 60;" xml:space="preserve">
<style type="text/css">
	.st0{fill:#231F20;}
	.st1{fill:#F2C619;}
</style>
<g>
	<path class="st0" d="M4.5,56.6L0.2,44.3h2.1l3.2,10h0.1l3.2-10h2.1L6.5,56.6H4.5z"/>
	<path class="st0" d="M14,52.2c0,1.8,1.1,3,2.9,3c1.8,0,2.9-1.1,2.9-3v-7.9h1.8v8c0,2.7-1.9,4.5-4.7,4.5c-2.8,0-4.7-1.8-4.7-4.5v-8
		H14V52.2z"/>
	<path class="st0" d="M23.1,56.6l4.3-12.2h2l4.3,12.2h-2l-1.1-3.5h-4.4L25,56.6H23.1z M28.3,46.3l-1.7,5.3h3.5L28.3,46.3L28.3,46.3z
		"/>
	<path class="st0" d="M46.6,56.6v-5.5h-5.8v5.5h-1.8V44.3h1.8v5.1h5.8v-5.1h1.8v12.2H46.6z"/>
	<path class="st0" d="M50,56.6l4.3-12.2h2l4.3,12.2h-2l-1.1-3.5H53l-1.1,3.5H50z M54.8,43l-2.6-1.8h1.9l2.3,1.8H54.8z M55.2,46.3
		l-1.7,5.3H57L55.2,46.3L55.2,46.3z"/>
	<path class="st0" d="M62.2,56.6V44.3h1.7l5.9,9.1h0.1v-9.1h1.8v12.2h-1.7L64,47.5H64v9.1H62.2z"/>
	<path class="st0" d="M81.7,48.1c-0.2-1.7-1.4-2.4-2.8-2.4c-1.7,0-3.1,1.2-3.1,3.9v1.6c0,2.4,1,4,3.1,4c1.7,0,2.9-1.1,2.9-2.5v-1
		h-2.9v-1.5h4.7v2.5c0,1.7-1.2,4.2-4.7,4.2c-3.3,0-5-2.2-5-5.6v-1.6c0-3.5,2-5.5,5-5.5c2.9,0,4.5,1.9,4.6,4H81.7z"/>
	<path class="st0" d="M97.3,56.6v-5.5h-5.8v5.5h-1.8V44.3h1.8v5.1h5.8v-5.1h1.8v12.2H97.3z"/>
	<path class="st0" d="M101.9,56.6V44.3h1.8v12.2H101.9z"/>
	<path class="st0" d="M114.1,56.6h-7.5V44.3h7.5v1.6h-5.7v3.7h5.4v1.5h-5.4V55h5.7V56.6z M110.3,58c0.6,0,1,0.4,1,1c0,0.6-0.4,1-1,1
		c-0.6,0-1-0.4-1-1C109.3,58.4,109.8,58,110.3,58z"/>
	<path class="st0" d="M118.2,52.2c0,1.8,1.1,3,2.9,3c1.8,0,2.9-1.1,2.9-3v-7.9h1.8v8c0,2.7-1.9,4.5-4.7,4.5c-2.8,0-4.7-1.8-4.7-4.5
		v-8h1.8V52.2z"/>
	<polygon class="st0" points="108.3,43.1 112.3,43.1 112.4,40.7 111.2,41.9 110.3,40.7 109.4,41.9 108.3,40.7 	"/>
</g>
<g>
	<path class="st1" d="M69.1,14.2l-5.4,14.4c-0.9-3.1-2.1-6.8-3.1-9.9c-1.6-5.1-9.5-4.5-9.5-4.5s0.8,2.1,1.7,3.9
		c3.7-0.2,4.7,1.5,5.9,8.6c1.3,7.1,6.8,7.7,6.8,7.7l9.4-20.2H69.1z"/>
	<path class="st1" d="M63.2,10.2h0.4h7.9l2.9-6.6l0,0l-3.8,1.5c0,0,0,0,0,0.1c0.2,1.1-0.7,2.2-2,2.4c-1.3,0.2-2.6-0.4-2.8-1.5
		C65.5,5.2,66.1,4.4,67,4L63.4,0l0,0l0,0L59.7,4c0.9,0.4,1.5,1.3,1.3,2.2c-0.2,1.1-1.4,1.8-2.8,1.5c-1.3-0.2-2.2-1.3-2-2.4
		c0,0,0,0,0-0.1l-3.8-1.5l0,0l2.9,6.6H63.2z"/>
</g>
</svg>
